<svg preserveAspectRatio="none" width="100%" height="100%" overflow="visible" style="display: block;" viewBox="0 0 10 10" fill="none" xmlns="http://www.w3.org/2000/svg">
<path id="Vector" d="M5.39063 0.249237C5.31611 0.0970314 5.16525 0 5.00166 0C4.83807 0 4.68721 0.0970314 4.61269 0.249237L3.27492 2.99275L0.368554 3.47601C0.206786 3.50264 0.0722824 3.62251 0.0213892 3.78613C-0.0295041 3.94975 0.0123011 4.12859 0.126811 4.25036L2.20616 6.42881L1.74813 9.47103C1.72268 9.64036 1.78993 9.81159 1.92262 9.91242C2.0553 10.0133 2.22979 10.0285 2.37702 9.95048L5.00166 8.55398L7.62448 9.95048C7.76989 10.0285 7.9462 10.0133 8.07888 9.91242C8.21157 9.81159 8.27882 9.64226 8.25338 9.47103L7.79352 6.42881L9.87287 4.25036C9.9892 4.12859 10.0292 3.94975 9.97829 3.78613C9.9274 3.62251 9.79471 3.50264 9.63113 3.47601L6.72658 2.99275L5.39063 0.249237Z" fill="var(--fill-0, white)"/>
</svg>
